<svg xmlns="http://www.w3.org/2000/svg" viewBox="0 0 800 600">
  <!-- Background -->
  <rect width="800" height="600" fill="#f8f9fa" />
  
  <!-- Header -->
  <rect x="0" y="0" width="800" height="70" fill="#ffffff" stroke="#e9ecef" stroke-width="1" />
  <!-- Logo -->
  <rect x="30" y="20" width="120" height="30" rx="5" fill="#6c757d" />
  <text x="55" y="42" font-family="Arial" font-size="16" fill="#ffffff">EduLearn</text>
  
  <!-- Navigation Links -->
  <text x="210" y="40" font-family="Arial" font-size="16" fill="#495057">Home</text>
  <text x="300" y="40" font-family="Arial" font-size="16" fill="#495057">Summaries</text>
  <line x1="300" x2="370" y1="45" y2="45" stroke="#6c757d" stroke-width="2" />
  <text x="400" y="40" font-family="Arial" font-size="16" fill="#495057">Tasks</text>
  <text x="480" y="40" font-family="Arial" font-size="16" fill="#495057">Projects</text>
  <text x="570" y="40" font-family="Arial" font-size="16" fill="#495057">Profile</text>
  
  <!-- Profile Icon -->
  <circle cx="740" cy="35" r="20" fill="#e9ecef" />
  <circle cx="740" cy="25" r="8" fill="#adb5bd" />
  <path d="M725 45 Q740 55, 755 45" fill="#adb5bd" />
  
  <!-- Page Title -->
  <text x="50" y="100" font-family="Arial" font-size="24" font-weight="bold" fill="#343a40">Course Summary Library</text>
  
  <!-- Access Info -->
  <rect x="500" y="85" width="250" height="30" rx="15" fill="#e9ecef" />
  <text x="520" y="105" font-family="Arial" font-size="14" fill="#495057">🔒 Access restricted to approved users</text>
  
  <!-- Filter Section -->
  <rect x="50" y="120" width="700" height="90" rx="5" fill="#ffffff" stroke="#e9ecef" stroke-width="1" />
  <text x="70" y="145" font-family="Arial" font-size="16" font-weight="bold" fill="#343a40">Filter Summaries</text>
  
  <!-- Course Filter -->
  <text x="70" y="175" font-family="Arial" font-size="14" fill="#495057">Course:</text>
  <rect x="130" y="160" width="180" height="30" rx="5" fill="#ffffff" stroke="#ced4da" stroke-width="1" />
  <text x="145" y="180" font-family="Arial" font-size="14" fill="#adb5bd">Select course...</text>
  <polygon points="290,175 300,168 300,182" fill="#6c757d" />
  
  <!-- Subject Filter -->
  <text x="340" y="175" font-family="Arial" font-size="14" fill="#495057">Subject:</text>
  <rect x="400" y="160" width="150" height="30" rx="5" fill="#ffffff" stroke="#ced4da" stroke-width="1" />
  <text x="415" y="180" font-family="Arial" font-size="14" fill="#adb5bd">All subjects</text>
  <polygon points="530,175 540,168 540,182" fill="#6c757d" />
  
  <!-- Date Filter -->
  <text x="580" y="175" font-family="Arial" font-size="14" fill="#495057">Date:</text>
  <rect x="620" y="160" width="130" height="30" rx="5" fill="#ffffff" stroke="#ced4da" stroke-width="1" />
  <text x="635" y="180" font-family="Arial" font-size="14" fill="#adb5bd">Newest first</text>
  <polygon points="730,175 740,168 740,182" fill="#6c757d" />
  
  <!-- Sort & View Options -->
  <rect x="50" y="225" width="150" height="35" rx="5" fill="#ffffff" stroke="#ced4da" stroke-width="1" />
  <text x="70" y="247" font-family="Arial" font-size="14" fill="#343a40">Sort by: Relevance</text>
  <polygon points="180,242 190,235 190,249" fill="#6c757d" />
  
  <text x="600" y="247" font-family="Arial" font-size="14" fill="#343a40">24 items found</text>
  <rect x="700" y="225" width="50" height="35" rx="5" fill="#ffffff" stroke="#ced4da" stroke-width="1" />
  <rect x="712" y="235" width="25" height="15" fill="#6c757d" />
  
  <!-- Summary Items -->
  <!-- Item 1 -->
  <rect x="50" y="275" width="700" height="80" rx="5" fill="#ffffff" stroke="#e9ecef" stroke-width="1" />
  <rect x="70" y="295" width="50" height="40" rx="3" fill="#e9ecef" />
  <text x="86" y="317" font-family="Arial" font-size="18" fill="#adb5bd">PDF</text>
  
  <text x="140" y="305" font-family="Arial" font-size="16" font-weight="bold" fill="#343a40">Introduction to Computer Science - Final Exam Summary</text>
  
  <!-- Rating -->
  <text x="140" y="330" font-family="Arial" font-size="14" fill="#495057">Rating:</text>
  <circle cx="190" cy="325" r="8" fill="#fcc419" />
  <circle cx="210" cy="325" r="8" fill="#fcc419" />
  <circle cx="230" cy="325" r="8" fill="#fcc419" />
  <circle cx="250" cy="325" r="8" fill="#fcc419" />
  <circle cx="270" cy="325" r="8" fill="#e9ecef" />
  <text x="285" y="330" font-family="Arial" font-size="14" fill="#495057">(24)</text>
  
  <!-- Uploader -->
  <text x="350" y="330" font-family="Arial" font-size="14" fill="#495057">By:</text>
  <text x="370" y="330" font-family="Arial" font-size="14" fill="#4263eb">DanielK</text>
  
  <!-- Date -->
  <text x="450" y="330" font-family="Arial" font-size="14" fill="#6c757d">Mar 10, 2025</text>
  
  <!-- Download Button -->
  <rect x="630" y="305" width="100" height="35" rx="5" fill="#4263eb" />
  <text x="655" y="327" font-family="Arial" font-size="14" fill="#ffffff">Download</text>
  
  <!-- Item 2 -->
  <rect x="50" y="370" width="700" height="80" rx="5" fill="#ffffff" stroke="#e9ecef" stroke-width="1" />
  <rect x="70" y="390" width="50" height="40" rx="3" fill="#e9ecef" />
  <text x="86" y="412" font-family="Arial" font-size="18" fill="#adb5bd">DOC</text>
  
  <text x="140" y="400" font-family="Arial" font-size="16" font-weight="bold" fill="#343a40">Advanced Database Systems - Chapter 3-5 Summary</text>
  
  <!-- Rating -->
  <text x="140" y="425" font-family="Arial" font-size="14" fill="#495057">Rating:</text>
  <circle cx="190" cy="420" r="8" fill="#fcc419" />
  <circle cx="210" cy="420" r="8" fill="#fcc419" />
  <circle cx="230" cy="420" r="8" fill="#fcc419" />
  <circle cx="250" cy="420" r="8" fill="#fcc419" />
  <circle cx="270" cy="420" r="8" fill="#fcc419" />
  <text x="285" y="425" font-family="Arial" font-size="14" fill="#495057">(16)</text>
  
  <!-- Uploader -->
  <text x="350" y="425" font-family="Arial" font-size="14" fill="#495057">By:</text>
  <text x="370" y="425" font-family="Arial" font-size="14" fill="#4263eb">MiriamL</text>
  
  <!-- Date -->
  <text x="450" y="425" font-family="Arial" font-size="14" fill="#6c757d">Mar 5, 2025</text>
  
  <!-- Download Button -->
  <rect x="630" y="400" width="100" height="35" rx="5" fill="#4263eb" />
  <text x="655" y="422" font-family="Arial" font-size="14" fill="#ffffff">Download</text>
  
  <!-- Item 3 -->
  <rect x="50" y="465" width="700" height="80" rx="5" fill="#ffffff" stroke="#e9ecef" stroke-width="1" />
  <rect x="70" y="485" width="50" height="40" rx="3" fill="#e9ecef" />
  <text x="86" y="507" font-family="Arial" font-size="18" fill="#adb5bd">PDF</text>
  
  <text x="140" y="495" font-family="Arial" font-size="16" font-weight="bold" fill="#343a40">Web Development Frameworks - React & Angular Comparison</text>
  
  <!-- Rating -->
  <text x="140" y="520" font-family="Arial" font-size="14" fill="#495057">Rating:</text>
  <circle cx="190" cy="515" r="8" fill="#fcc419" />
  <circle cx="210" cy="515" r="8" fill="#fcc419" />
  <circle cx="230" cy="515" r="8" fill="#fcc419" />
  <circle cx="250" cy="515" r="8" fill="#e9ecef" />
  <circle cx="270" cy="515" r="8" fill="#e9ecef" />
  <text x="285" y="520" font-family="Arial" font-size="14" fill="#495057">(9)</text>
  
  <!-- Uploader -->
  <text x="350" y="520" font-family="Arial" font-size="14" fill="#495057">By:</text>
  <text x="370" y="520" font-family="Arial" font-size="14" fill="#4263eb">TaliaR</text>
  
  <!-- Date -->
  <text x="450" y="520" font-family="Arial" font-size="14" fill="#6c757d">Feb 28, 2025</text>
  
  <!-- Download Button -->
  <rect x="630" y="495" width="100" height="35" rx="5" fill="#4263eb" />
  <text x="655" y="517" font-family="Arial" font-size="14" fill="#ffffff">Download</text>
  
  <!-- Pagination -->
  <rect x="305" y="560" width="190" height="30" rx="15" fill="#ffffff" stroke="#e9ecef" stroke-width="1" />
  <text x="330" y="580" font-family="Arial" font-size="14" fill="#adb5bd">◀</text>
  <circle cx="360" cy="575" r="12" fill="#4263eb" />
  <text x="356" y="580" font-family="Arial" font-size="14" fill="#ffffff">1</text>
  <text x="380" y="580" font-family="Arial" font-size="14" fill="#6c757d">2</text>
  <text x="405" y="580" font-family="Arial" font-size="14" fill="#6c757d">3</text>
  <text x="430" y="580" font-family="Arial" font-size="14" fill="#6c757d">4</text>
  <text x="455" y="580" font-family="Arial" font-size="14" fill="#adb5bd">▶</text>
</svg>
